Coordinates
version=1
nRows=32
nColumns=22
inDegrees=yes

Units are S.I. units (second, meters, Newtons, ...)
If the header above contains a line with 'inDegrees', this indicates whether rotational values are in degrees (yes) or radians (no).

endheader
time	pelvis_tilt	pelvis_list	pelvis_rotation	pelvis_tx	pelvis_ty	pelvis_tz	hip_flexion_r	hip_adduction_r	hip_rotation_r	knee_angle_r	ankle_angle_r	subtalar_angle_r	hip_flexion_l	hip_adduction_l	hip_rotation_l	knee_angle_l	ankle_angle_l	subtalar_angle_l	lumbar_extension	lumbar_bending	lumbar_rotation
      3.90000000	     -5.79210863	     -5.60004084	    -55.02769302	      0.99560302	      0.83005861	      0.85661044	    -10.92282202	      4.79340340	     16.49402889	    -24.50198287	     28.00127345	     -4.28930853	     31.78130404	    -23.02932576	     -4.31313099	    -12.18207400	      7.17119824	      6.78831033	     -4.06656528	      6.72359829	     27.88928893
      3.91000000	     -5.81256571	     -5.64465219	    -55.44224543	      1.00549284	      0.82879225	      0.86179388	    -11.41180269	      4.33961418	     16.85272021	    -24.93457572	     27.56605217	     -3.53471280	     31.57006520	    -23.18118904	     -4.39426101	    -12.80739872	      7.24524256	      6.59882379	     -4.11014221	      6.69683868	     27.95313645
      3.92000000	     -5.83691224	     -5.67731420	    -55.80164049	      1.01570942	      0.82761660	      0.86696220	    -11.91997190	      3.86293737	     17.21570189	    -25.29860725	     27.02953390	     -2.69748449	     31.34693286	    -23.26468829	     -4.48570348	    -13.51312971	      7.17264146	      6.49557590	     -4.11842493	      6.68089382	     27.95594959
      3.93000000	     -5.86329246	     -5.67548966	    -56.09126053	      1.02624352	      0.82650673	      0.87211771	    -12.42359745	      3.35704866	     17.56030890	    -25.60260049	     26.38758767	     -1.77612468	     31.15085691	    -23.26237012	     -4.58621741	    -14.29751806	      6.90882082	      6.52296471	     -4.06837115	      6.65411709	     27.87656591
      3.94000000	     -5.88451246	     -5.63577921	    -56.31016698	      1.03706006	      0.82547515	      0.87723173	    -12.91675076	      2.82439342	     17.89670176	    -25.85781211	     25.63569914	     -0.82345142	     31.00586511	    -23.16993877	     -4.69023442	    -15.16860756	      6.39766440	      6.72354650	     -3.96927924	      6.60882246	     27.72289249
      3.95000000	     -5.89027444	     -5.55676341	    -56.44451712	      1.04812201	      0.82454368	      0.88227275	    -13.39096611	      2.26954355	     18.20611456	    -26.08709070	     24.77094792	      0.13065504	     30.93101708	    -22.97691122	     -4.75643472	    -16.12081194	      5.57737098	      7.12203249	     -3.83098355	      6.52899307	     27.49091091
      3.96000000	     -5.86097599	     -5.39571428	    -56.47764996	      1.05944089	      0.82367340	      0.88719183	    -13.79018557	      1.66009814	     18.41745325	    -26.34497116	     23.81035692	      1.05575854	     30.98842261	    -22.63973941	     -4.78025725	    -17.19477375	      4.51544168	      7.69993167	     -3.62846802	      6.37282223	     27.15911977
      3.97000000	     -5.79348153	     -5.18220694	    -56.44660266	      1.07090861	      0.82294885	      0.89205394	    -14.14134522	      1.02293881	     18.62004291	    -26.63538026	     22.69805788	      1.99849652	     31.15584561	    -22.20687570	     -4.79681080	    -18.41348901	      3.35420667	      8.43161602	     -3.39766067	      6.14468213	     26.76713977
      3.98000000	     -5.65939381	     -4.92795986	    -56.30533425	      1.08254052	      0.82242267	      0.89674447	    -14.44899065	      0.35260801	     18.70015211	    -26.99335431	     21.45840723	      2.83756199	     31.41910023	    -21.62798773	     -4.70139118	    -19.76414012	      2.11691882	      9.18742751	     -3.17969549	      5.82633641	     26.30491500
      3.99000000	     -5.45126408	     -4.63942650	    -56.06302752	      1.09429839	      0.82213609	      0.90129758	    -14.71647328	     -0.34687724	     18.66349528	    -27.43370925	     20.07323716	      3.59239904	     31.75425084	    -20.90830158	     -4.51570463	    -21.25007617	      0.98729269	      9.86237655	     -2.98717875	      5.41019176	     25.77978382
      4.00000000	     -5.17189262	     -4.33222234	    -55.72499225	      1.10614882	      0.82213621	      0.90572907	    -14.95331464	     -1.05795459	     18.51488422	    -27.96088309	     18.51572737	      4.26526759	     32.12016404	    -20.05977941	     -4.26328001	    -22.83307703	      0.06560184	     10.34660942	     -2.83839525	      4.90812708	     25.19647795
      4.01000000	     -4.83563855	     -4.02680375	    -55.29544019	      1.11806557	      0.82244359	      0.91004031	    -15.16638999	     -1.75610803	     18.25818392	    -28.57193513	     16.79017944	      4.85052557	     32.47690563	    -19.10461786	     -3.95674717	    -24.46204432	     -0.57984514	     10.55820874	     -2.74639758	      4.34634755	     24.57719500
      4.02000000	     -4.47329257	     -3.73883733	    -54.79058453	      1.13000693	      0.82305663	      0.91423010	    -15.34695309	     -2.40849038	     17.92736994	    -29.26145846	     14.89108247	      5.35283648	     32.79279646	    -18.08204704	     -3.61432566	    -26.07265653	     -0.92790697	     10.47250132	     -2.71062895	      3.76916759	     23.94353059
      4.03000000	     -4.12347942	     -3.49677759	    -54.21604331	      1.14190542	      0.82394596	      0.91830472	    -15.48835918	     -2.96130338	     17.53904511	    -30.03154599	     12.85565743	      5.62446919	     33.05154316	    -17.04683629	     -3.23762149	    -27.62115471	     -1.00067968	     10.27059007	     -2.73314375	      3.22919182	     23.28855032
      4.04000000	     -3.80463600	     -3.28174161	    -53.64851712	      1.15368357	      0.82505643	      0.92227938	    -15.52536008	     -3.43910797	     17.18338005	    -30.91786421	     10.71162535	      6.15174610	     33.22027780	    -16.04113830	     -2.91527754	    -29.05170463	     -0.73888283	      9.58535417	     -2.78663115	      2.74068135	     22.71973285
      4.05000000	     -3.56016129	     -3.12963002	    -53.07905680	      1.16528053	      0.82634725	      0.92612661	    -15.45497318	     -3.77562635	     16.86095402	    -31.91611127	      8.49577392	      6.46526353	     33.30709258	    -15.12146220	     -2.60258477	    -30.34314520	     -0.26762827	      8.94721855	     -2.87448203	      2.37187317	     22.19203199
      4.06000000	     -3.39390115	     -3.04520129	    -52.53518789	      1.17662407	      0.82777084	      0.92982972	    -15.24044109	     -3.97755808	     16.56573470	    -33.07297099	      6.25667879	      6.66908742	     33.29686191	    -14.31085098	     -2.30926546	    -31.47616013	      0.38149131	      8.40562300	     -2.99876539	      2.13287018	     21.73183425
      4.07000000	     -3.32116637	     -2.99703017	    -52.09386342	      1.18757867	      0.82927774	      0.93346449	    -14.80910357	     -4.06335212	     16.38904238	    -34.42717964	      4.00889703	      6.84163730	     33.19459196	    -13.65562644	     -2.12632055	    -32.42861922	      1.19768914	      7.74451891	     -3.11412617	      2.01348157	     21.39532180
      4.08000000	     -3.31956206	     -2.97840934	    -51.77204525	      1.19806916	      0.83084561	      0.93703692	    -14.14283880	     -4.06588353	     16.27785374	    -36.01155648	      1.78607107	      6.90605547	     32.99263768	    -13.15168615	     -2.06716820	    -33.20088799	      2.09817838	      7.18092888	     -3.22991333	      1.98538873	     21.19616876
      4.09000000	     -3.36883739	     -2.96861324	    -51.56913212	      1.20805294	      0.83246202	      0.94053089	    -13.22799599	     -4.01954282	     16.18733821	    -37.83282857	     -0.40818299	      6.86531477	     32.69846559	    -12.77166411	     -2.12953900	    -33.78876024	      3.02105411	      6.74490318	     -3.34166057	      2.01310383	     21.11570991
      4.10000000	     -3.45388056	     -2.93984155	    -51.47627932	      1.21750762	      0.83409992	      0.94394998	    -12.05679684	     -3.95729200	     16.07381660	    -39.87527384	     -2.56820030	      6.74225757	     32.33428160	    -12.48348351	     -2.30978805	    -34.19799591	      3.92491274	      6.39779591	     -3.43222121	      2.06044862	     21.12311462
      4.11000000	     -3.57958647	     -2.87217486	    -51.45627357	      1.22645619	      0.83571440	      0.94726846	    -10.63053191	     -3.88532702	     15.88300360	    -42.10146374	     -4.67300836	      6.47786198	     31.94992543	    -12.25315439	     -2.55402610	    -34.45523531	      4.79974659	      6.04410879	     -3.47604761	      2.11597933	     21.16305546
      4.12000000	     -3.71241959	     -2.73407489	    -51.52512238	      1.23485195	      0.83731884	      0.95051846	     -8.95467504	     -3.85526516	     15.63559683	    -44.48717952	     -6.66129415	      6.22437092	     31.54873516	    -12.04823011	     -2.90607220	    -34.56711796	      5.55495194	      5.80645725	     -3.46747566	      2.11980532	     21.25698667
      4.13000000	     -3.83195188	     -2.51944156	    -51.65316324	      1.24276363	      0.83891568	      0.95370688	     -7.07972061	     -3.89053925	     15.31732204	    -46.96837661	     -8.40919704	      6.07223202	     31.13328790	    -11.82850656	     -3.33977980	    -34.54319968	      6.21086618	      5.65940278	     -3.40775379	      2.04809785	     21.37183411
      4.14000000	     -3.99032679	     -2.24944557	    -51.76335709	      1.25028690	      0.84045214	      0.95675733	     -5.04518723	     -3.91075306	     14.92024805	    -49.46168540	     -9.85265677	      5.79166338	     30.78997913	    -11.58887066	     -3.69242670	    -34.45184239	      6.77453000	      5.44946838	     -3.27371414	      1.96690044	     21.40652159
      4.15000000	     -4.09569467	     -1.92848565	    -51.88942580	      1.25745492	      0.84204693	      0.95972944	     -2.93824777	     -4.00872841	     14.48147880	    -51.92941342	    -10.78849044	      5.68066415	     30.40510261	    -11.28633404	     -4.07726328	    -34.24462470	      7.21492831	      5.33925491	     -3.13182831	      1.79551970	     21.43292010
      4.16000000	     -4.25476170	     -1.58866705	    -51.95380877	      1.26436896	      0.84358015	      0.96254456	     -0.76120685	     -4.05397743	     13.96979415	    -54.31141149	    -11.19272630	      5.39847325	     30.10567462	    -10.97428980	     -4.33114705	    -34.00979622	      7.61752669	      5.12877896	     -2.93117346	      1.66193795	     21.33340209
      4.17000000	     -4.37471326	     -1.25414603	    -51.99636262	      1.27103103	      0.84521576	      0.96526725	      1.38795235	     -4.11404306	     13.43550552	    -56.57584807	    -11.01089517	      5.11235109	     29.75236046	    -10.61916185	     -4.53825195	    -33.68431863	      7.90808343	      4.95581456	     -2.75839126	      1.49291999	     21.18824177
      4.18000000	     -4.48166566	     -0.94420677	    -52.00347058	      1.27747764	      0.84692372	      0.96786710	      3.49636028	     -4.15045110	     12.87302341	    -58.70089416	    -10.30754807	      4.74086463	     29.36719540	    -10.24650537	     -4.67781768	    -33.29526018	      8.14128158	      4.78818189	     -2.61572153	      1.33178201	     20.97433369
      4.19000000	     -4.57049230	     -0.67991985	    -51.97202908	      1.28371560	      0.84871243	      0.97034797	      5.53036756	     -4.15796919	     12.27023235	    -60.66849322	     -9.13255147	      4.35125272	     28.93739110	     -9.87097543	     -4.76106114	    -32.85777613	      8.30125095	      4.65227577	     -2.52570747	      1.18657189	     20.70884673
      4.20000000	     -4.71103404	     -0.48223009	    -51.90758890	      1.28971324	      0.85052561	      0.97270289	      7.51028035	     -4.04063184	     11.65077525	    -62.45635014	     -7.69352183	      3.62103822	     28.51528437	     -9.56950233	     -4.77870991	    -32.40548664	      8.47201925	      4.39949045	     -2.46266919	      1.14147201	     20.34770580
      4.21000000	     -4.83346574	     -0.32619329	    -51.82973318	      1.29548524	      0.85240954	      0.97496567	      9.40951865	     -3.89138961	     11.02861052	    -64.05810738	     -6.11360294	      3.11282580	     28.03176535	     -9.28030247	     -4.77709689	    -31.88496627	      8.58416484	      4.23095350	     -2.44945148	      1.10980275	     19.95174070
